<?xml version="1.0" encoding="utf-8"?>
<!-- Generator: Adobe Illustrator 17.0.0, SVG Export Plug-In . SVG Version: 6.00 Build 0)  -->
<!DOCTYPE svg PUBLIC "-//W3C//DTD SVG 1.1//EN" "http://www.w3.org/Graphics/SVG/1.1/DTD/svg11.dtd">
<svg version="1.1" id="Layer_1" xmlns="http://www.w3.org/2000/svg" xmlns:xlink="http://www.w3.org/1999/xlink" x="0px" y="0px"
	 width="234px" height="80px" viewBox="0 0 234 80" enable-background="new 0 0 234 80" xml:space="preserve">
<g>
	<g>
		<g>
			<polygon fill="#B5D7F2" points="76.431,40.124 43.457,2.613 10.484,40.124 			"/>
		</g>
		<polygon fill="#004785" points="10.535,40.222 43.508,77.732 76.478,40.222 		"/>
		<g>
			<polygon fill="#3F66B0" points="74.592,24.728 74.739,24.706 74.867,24.532 75.017,24.011 75.048,23.176 78.232,27.279 
				73.338,29.031 73.812,27.4 69.232,25.926 64.786,24.697 60.585,23.617 56.518,22.777 52.677,22.153 48.926,21.691 45.401,21.439 
				41.981,21.298 38.809,21.282 35.72,21.447 32.833,21.659 30.101,22.058 27.501,22.504 25.077,23.072 22.765,23.738 
				20.602,24.378 18.616,25.138 16.754,25.941 13.533,27.537 10.807,29.146 8.587,30.693 6.904,32.105 5.746,33.18 4.818,34.179 
				5.746,33.18 6.904,32.105 8.587,30.693 10.807,29.146 13.551,27.475 16.81,25.744 18.673,24.946 20.677,24.119 22.879,23.35 
				25.188,22.682 27.641,22.048 30.274,21.481 33.025,21.011 35.969,20.597 39.072,20.373 42.302,20.189 45.756,20.208 
				49.325,20.333 53.133,20.593 57.033,21.022 61.156,21.659 65.434,22.486 69.935,23.515 			"/>
			<path fill="#004785" d="M74.592,24.728c0.521,0.16,0.456-1.552,0.456-1.552l3.185,4.103l-4.895,1.752l0.475-1.631
				C23.931,10.302,4.818,34.179,4.818,34.179S23.868,10.504,74.592,24.728z"/>
		</g>
		<g>
			<polygon fill="#FFFFFF" points="25.577,57.487 28.34,57.592 33.404,57.701 38.268,57.711 42.852,57.609 47.236,57.41 
				51.412,57.106 55.375,56.775 62.606,55.867 62.748,55.843 63.755,54.698 63.119,54.779 55.944,55.256 47.934,55.475 
				43.508,55.447 38.964,55.27 34.142,54.977 29.123,54.51 23.833,53.93 22.282,53.738 			"/>
		</g>
		<g>
			<polygon fill="#FFFFFF" points="17.287,48.063 20.697,48.387 25.419,48.785 29.973,49.041 34.297,49.188 38.445,49.25 
				42.362,49.227 46.105,49.1 49.673,48.893 53.067,48.658 59.25,47.971 64.786,47.068 69.522,46.1 71.83,45.511 72.188,45.104 
				69.84,45.654 65.128,46.428 59.7,47.043 53.568,47.367 46.725,47.457 42.947,47.387 39.072,47.172 34.957,46.869 30.678,46.41 
				26.171,45.859 21.495,45.156 16.586,44.352 13.521,43.776 			"/>
		</g>
		<g>
			<path fill="#B5D7F2" d="M7.78,62.791L7.563,65.27l-4.923-5.555l6.047-4.436c0,0-0.8,2.77-0.32,2.826
				c59.737,12.465,82.836-3.221,82.836-3.221S67.399,70.856,7.78,62.791z"/>
		</g>
	</g>
	<g>
		<g>
			<path d="M120.351,26.272l-3.155,2.821c2.988,3.001,6.09,5.938,9.079,8.972l3.027,3.263v0.164
				c-0.745-0.031-1.415-0.095-2.048-0.093c-0.708,0.001-1.415,0.069-2.085,0.103c-0.823-1.044-1.646-2.023-2.579-2.97l-8.147-8.319
				c-0.187-0.13-0.634-0.227-0.633-0.097l0.038,11.415c-0.596-0.031-1.117-0.095-1.639-0.093c-0.559,0.002-1.117,0.068-1.638,0.102
				l-0.076-22.373c0.521,0.032,1.081,0.096,1.639,0.094c0.521-0.001,1.043-0.068,1.638-0.103l0.035,10.107
				c0.038,0.196,0.559,0.064,0.93-0.199c0.669-0.459,1.448-1.148,1.968-1.608l9.132-8.332c0.484,0.031,0.969,0.095,1.49,0.094
				c0.446-0.001,0.931-0.068,1.452-0.102L120.351,26.272z"/>
			<path d="M132.823,25.847c0.484,0.032,0.969,0.096,1.49,0.094c0.484-0.001,0.931-0.068,1.489-0.102l0.011,3.271l0.186-0.393
				c1.223-1.704,2.819-3.082,4.682-3.087c0.52-0.001,0.819,0.031,1.154,0.161l-0.512,2.749c-0.56-0.129-1.119-0.52-1.752-0.519
				c-0.819,0.002-1.824,0.267-2.381,0.824c-1.299,1.311-1.369,2.391-1.363,4.158l0.028,8.472c-0.559-0.031-1.006-0.096-1.489-0.094
				c-0.521,0.001-1.006,0.068-1.489,0.102L132.823,25.847z"/>
			<path d="M143.25,25.82c0.559,0.031,1.155,0.095,1.788,0.093c0.559-0.001,1.079-0.068,1.75-0.103
				c1.353,3.627,3.191,7.678,5.59,12.121c1.628-2.948,4.104-8.58,5.544-12.149c0.409,0.031,0.782,0.096,1.23,0.095
				c0.372-0.001,0.744-0.067,1.191-0.101c-4.365,8.581-8.361,16.082-11.946,24.04c-0.484-0.031-0.857-0.096-1.267-0.095
				c-0.447,0.001-0.857,0.067-1.266,0.102c2.295-3.964,3.998-6.912,4.961-8.518L143.25,25.82z"/>
			<path d="M163.587,38.23c0.899,1.273,2.541,2.414,4.291,2.409c1.825-0.004,3.646-1.252,3.64-2.986
				c-0.016-4.416-8.794-1.515-8.814-7.239c-0.011-3.14,2.702-4.848,6.054-4.857c1.936-0.005,3.539,0.482,4.211,0.839
				c-0.37,0.753-0.665,1.539-0.886,2.325l-0.336,0.001c-0.487-1.078-1.794-2.154-3.172-2.15c-1.862,0.004-3.386,0.957-3.38,2.724
				c0.015,4.187,8.795,1.94,8.813,7.173c0.013,3.5-3.557,5.178-6.834,5.186c-1.526,0.004-3.353-0.351-4.658-1.034
				c0.295-0.786,0.628-1.572,0.773-2.39L163.587,38.23z"/>
			<path d="M181.032,21.47l0.015,4.252l3.947-0.01c-0.11,0.458-0.108,0.917,0.004,1.243l-3.947,0.01l0.028,8.21
				c0.007,1.995-0.317,5.3,2.773,5.292c0.559-0.001,1.116-0.133,1.675-0.233l0.003,0.785c-1.005,0.33-2.046,0.594-3.126,0.597
				c-2.83,0.008-4.473-1.133-4.3-5.125l-0.032-9.518l-2.31,0.006c0.11-0.425,0.109-0.818-0.004-1.243l2.309-0.006l-0.011-3.238
				L181.032,21.47z"/>
			<path d="M201.162,38.557c0.004,1.275-0.105,1.93,2.09,1.499l0.003,0.72c-0.261,0.099-0.707,0.264-1.116,0.33
				c-1.936,0.299-3.537,0.042-3.842-1.887l-0.334,0.295c-1.56,1.377-3.271,2.069-5.505,2.075c-2.644,0.007-4.958-1.557-4.966-3.978
				c-0.013-3.729,3.374-4.229,6.873-4.728c2.941-0.433,3.945-0.632,3.939-2.202c-0.008-2.42-1.577-3.823-4.369-3.816
				c-2.719,0.007-4.166,1.548-4.424,2.269l-0.41,0.001l-0.006-1.832c1.783-1.084,3.792-1.809,5.989-1.814
				c3.91-0.01,6.039,1.783,6.051,5.479L201.162,38.557z M198.164,33.168l-1.302,0.232c-2.531,0.432-6.328,0.769-6.318,3.745
				c0.007,2.061,1.389,3.071,3.66,3.065c1.005-0.002,2.27-0.627,2.975-1.25c0.26-0.229,1.003-0.788,1.002-1.017L198.164,33.168z"/>
			<path d="M208.014,16.722c0.484,0.031,0.969,0.096,1.49,0.094c0.484-0.001,0.931-0.068,1.489-0.102l0.083,24.564
				c-0.559-0.031-1.005-0.095-1.489-0.094c-0.521,0.001-1.005,0.068-1.489,0.102L208.014,16.722z"/>
		</g>
		<g>
			<path fill="#808285" d="M120.351,26.272l-3.155,2.821c2.988,3.001,6.09,5.938,9.079,8.972l3.027,3.263v0.164
				c-0.745-0.031-1.415-0.095-2.048-0.093c-0.708,0.001-1.415,0.069-2.085,0.103c-0.823-1.044-1.646-2.023-2.579-2.97l-8.147-8.319
				c-0.187-0.13-0.634-0.227-0.633-0.097l0.038,11.415c-0.596-0.031-1.117-0.095-1.639-0.093c-0.559,0.002-1.117,0.068-1.638,0.102
				l-0.076-22.373c0.521,0.032,1.081,0.096,1.639,0.094c0.521-0.001,1.043-0.068,1.638-0.103l0.035,10.107
				c0.038,0.196,0.559,0.064,0.93-0.199c0.669-0.459,1.448-1.148,1.968-1.608l9.132-8.332c0.484,0.031,0.969,0.095,1.49,0.094
				c0.446-0.001,0.931-0.068,1.452-0.102L120.351,26.272z"/>
			<path fill="#808285" d="M132.823,25.847c0.484,0.032,0.969,0.096,1.49,0.094c0.484-0.001,0.931-0.068,1.489-0.102l0.011,3.271
				l0.186-0.393c1.223-1.704,2.819-3.082,4.682-3.087c0.52-0.001,0.819,0.031,1.154,0.161l-0.512,2.749
				c-0.56-0.129-1.119-0.52-1.752-0.519c-0.819,0.002-1.824,0.267-2.381,0.824c-1.299,1.311-1.369,2.391-1.363,4.158l0.028,8.472
				c-0.559-0.031-1.006-0.096-1.489-0.094c-0.521,0.001-1.006,0.068-1.489,0.102L132.823,25.847z"/>
			<path fill="#808285" d="M143.25,25.82c0.559,0.031,1.155,0.095,1.788,0.093c0.559-0.001,1.079-0.068,1.75-0.103
				c1.353,3.627,3.191,7.678,5.59,12.121c1.628-2.948,4.104-8.58,5.544-12.149c0.409,0.031,0.782,0.096,1.23,0.095
				c0.372-0.001,0.744-0.067,1.191-0.101c-4.365,8.581-8.361,16.082-11.946,24.04c-0.484-0.031-0.857-0.096-1.267-0.095
				c-0.447,0.001-0.857,0.067-1.266,0.102c2.295-3.964,3.998-6.912,4.961-8.518L143.25,25.82z"/>
			<path fill="#808285" d="M163.587,38.23c0.899,1.273,2.541,2.414,4.291,2.409c1.825-0.004,3.646-1.252,3.64-2.986
				c-0.016-4.416-8.794-1.515-8.814-7.239c-0.011-3.14,2.702-4.848,6.054-4.857c1.936-0.005,3.539,0.482,4.211,0.839
				c-0.37,0.753-0.665,1.539-0.886,2.325l-0.336,0.001c-0.487-1.078-1.794-2.154-3.172-2.15c-1.862,0.004-3.386,0.957-3.38,2.724
				c0.015,4.187,8.795,1.94,8.813,7.173c0.013,3.5-3.557,5.178-6.834,5.186c-1.526,0.004-3.353-0.351-4.658-1.034
				c0.295-0.786,0.628-1.572,0.773-2.39L163.587,38.23z"/>
			<path fill="#808285" d="M181.032,21.47l0.015,4.252l3.947-0.01c-0.11,0.458-0.108,0.917,0.004,1.243l-3.947,0.01l0.028,8.21
				c0.007,1.995-0.317,5.3,2.773,5.292c0.559-0.001,1.116-0.133,1.675-0.233l0.003,0.785c-1.005,0.33-2.046,0.594-3.126,0.597
				c-2.83,0.008-4.473-1.133-4.3-5.125l-0.032-9.518l-2.31,0.006c0.11-0.425,0.109-0.818-0.004-1.243l2.309-0.006l-0.011-3.238
				L181.032,21.47z"/>
			<path fill="#808285" d="M201.162,38.557c0.004,1.275-0.105,1.93,2.09,1.499l0.003,0.72c-0.261,0.099-0.707,0.264-1.116,0.33
				c-1.936,0.299-3.537,0.042-3.842-1.887l-0.334,0.295c-1.56,1.377-3.271,2.069-5.505,2.075c-2.644,0.007-4.958-1.557-4.966-3.978
				c-0.013-3.729,3.374-4.229,6.873-4.728c2.941-0.433,3.945-0.632,3.939-2.202c-0.008-2.42-1.577-3.823-4.369-3.816
				c-2.719,0.007-4.166,1.548-4.424,2.269l-0.41,0.001l-0.006-1.832c1.783-1.084,3.792-1.809,5.989-1.814
				c3.91-0.01,6.039,1.783,6.051,5.479L201.162,38.557z M198.164,33.168l-1.302,0.232c-2.531,0.432-6.328,0.769-6.318,3.745
				c0.007,2.061,1.389,3.071,3.66,3.065c1.005-0.002,2.27-0.627,2.975-1.25c0.26-0.229,1.003-0.788,1.002-1.017L198.164,33.168z"/>
			<path fill="#808285" d="M208.014,16.722c0.484,0.031,0.969,0.096,1.49,0.094c0.484-0.001,0.931-0.068,1.489-0.102l0.083,24.564
				c-0.559-0.031-1.005-0.095-1.489-0.094c-0.521,0.001-1.005,0.068-1.489,0.102L208.014,16.722z"/>
		</g>
	</g>
	<g>
		<g>
			<path fill="#00529B" d="M94.193,65.967c1.973,0.055,3.913-0.07,5.854-0.135c1.035-0.033,2.038-0.154,3.072-0.277
				c-0.031,0.329-0.095,0.598-0.094,0.896c0,0.3,0.066,0.598,0.1,0.897l-11.774,0.032l-0.065-20.359
				c0.453,0.028,0.938,0.087,1.423,0.086c0.453-0.002,0.906-0.063,1.423-0.094L94.193,65.967z"/>
			<path fill="#00529B" d="M117.182,52.931c4.432-0.013,7.513,2.819,7.527,7.274c0.012,3.797-2.726,7.422-8.063,7.436
				c-4.367,0.012-7.935-2.938-7.658-7.482C108.975,55.853,112.523,52.943,117.182,52.931z M111.836,60.598
				c0.01,2.961,1.378,6.125,5.065,6.115c3.785-0.01,4.967-4.318,4.959-6.65c-0.008-2.69-1.119-6.215-4.709-6.205
				C113.044,53.868,111.826,57.43,111.836,60.598z"/>
			<path fill="#00529B" d="M144.064,54.084l-3.559-0.26c1.329,0.953,2.239,2.266,2.244,3.939c0.011,3.26-3.122,4.642-6.874,4.653
				c-0.389,0.001-2.33-0.293-2.325,1.44c0.005,1.256,1.17,1.433,3.11,1.428l2.07-0.006c3.817-0.01,5.6,1.42,5.608,3.961
				c0.011,3.498-3.248,5.898-8.197,5.912c-2.652,0.007-5.858-1.24-5.868-4.379c-0.007-2.152,1.348-3.293,3.352-3.627v-0.239
				c-0.939-0.147-1.976-0.593-1.982-2.416c-0.004-1.435,0.964-2.065,2.224-2.577c-1.943-0.832-3.144-2.055-3.151-4.267
				c-0.009-2.9,1.796-4.907,6.52-4.771l4.496,0.137c0.776,0.088,1.553,0.056,2.329-0.066L144.064,54.084z M132.247,70.648
				c0.008,2.422,1.984,3.611,4.669,3.604c2.329-0.007,5.107-1.03,5.099-3.841c-0.01-3.109-2.34-3.313-4.766-3.305
				C133.885,67.086,132.239,68.227,132.247,70.648z M136.714,61.667c2.361-0.007,3.585-1.894,3.578-3.926
				c-0.008-2.302-0.919-4.063-3.474-4.057c-2.329,0.007-3.65,1.654-3.643,3.927C133.085,59.734,134.352,61.674,136.714,61.667z"/>
			<path fill="#00529B" d="M152.945,49.426c-0.906,0.002-1.652-0.684-1.655-1.52c-0.002-0.837,0.739-1.526,1.645-1.528
				c0.873-0.003,1.651,0.683,1.654,1.52C154.593,48.734,153.818,49.424,152.945,49.426z M154.296,67.3
				c-0.485-0.028-0.873-0.087-1.294-0.086c-0.453,0.001-0.873,0.061-1.294,0.093l-0.045-14.29c0.42,0.028,0.841,0.087,1.294,0.087
				c0.42-0.002,0.809-0.063,1.293-0.094L154.296,67.3z"/>
			<path fill="#00529B" d="M163.02,64.377c0.779,1.164,2.206,2.206,3.727,2.201c1.585-0.004,3.166-1.145,3.161-2.729
				c-0.013-4.036-7.638-1.385-7.655-6.616c-0.009-2.87,2.348-4.431,5.259-4.438c1.682-0.005,3.074,0.439,3.657,0.768
				c-0.321,0.687-0.577,1.406-0.77,2.124l-0.291,0.001c-0.424-0.985-1.559-1.969-2.756-1.966c-1.617,0.005-2.94,0.875-2.935,2.489
				c0.013,3.826,7.64,1.773,7.655,6.557c0.01,3.199-3.091,4.732-5.937,4.74c-1.326,0.003-2.912-0.322-4.047-0.946
				c0.257-0.718,0.546-1.437,0.673-2.185H163.02z"/>
			<path fill="#00529B" d="M181.408,49.05l0.013,3.887l3.429-0.009c-0.096,0.418-0.095,0.837,0.003,1.135l-3.429,0.01l0.024,7.504
				c0.006,1.824-0.275,4.844,2.409,4.837c0.485-0.001,0.97-0.122,1.455-0.214l0.002,0.718c-0.872,0.302-1.777,0.543-2.715,0.546
				c-2.459,0.006-3.885-1.036-3.735-4.684l-0.027-8.699l-2.006,0.005c0.096-0.39,0.095-0.747-0.004-1.136l2.006-0.006l-0.01-2.959
				L181.408,49.05z"/>
			<path fill="#00529B" d="M193.216,49.316c-0.906,0.003-1.652-0.683-1.655-1.52c-0.002-0.838,0.739-1.527,1.646-1.529
				c0.873-0.002,1.651,0.684,1.654,1.521C194.863,48.625,194.089,49.315,193.216,49.316z M194.566,67.191
				c-0.485-0.029-0.874-0.088-1.294-0.086c-0.453,0.001-0.873,0.061-1.294,0.093l-0.046-14.29c0.421,0.029,0.842,0.088,1.295,0.086
				c0.42-0.001,0.808-0.063,1.293-0.094L194.566,67.191z"/>
			<path fill="#00529B" d="M215.038,55.865h-0.259c-0.261-0.328-0.521-0.715-0.877-0.983c-0.746-0.775-2.106-1.19-3.206-1.188
				c-3.752,0.011-5.554,3.005-5.544,6.144c0.013,3.826,2.382,6.541,5.908,6.531c1.876-0.005,3.103-0.815,4.457-1.955l0.194,0.09
				l-0.157,1.375c-1.452,0.99-3.165,1.504-4.944,1.508c-5.401,0.016-8.29-3.206-8.304-7.392c-0.015-4.634,3.534-7.304,8.354-7.317
				c1.844-0.005,3.526,0.32,5.114,1.213L215.038,55.865z"/>
			<path fill="#00529B" d="M222.698,64.215c0.78,1.164,2.206,2.207,3.727,2.203c1.585-0.005,3.166-1.145,3.161-2.729
				c-0.013-4.036-7.638-1.384-7.654-6.616c-0.01-2.87,2.347-4.432,5.258-4.44c1.682-0.004,3.074,0.441,3.657,0.768
				c-0.321,0.689-0.577,1.407-0.77,2.125l-0.291,0.001c-0.424-0.985-1.559-1.969-2.756-1.966c-1.617,0.004-2.941,0.875-2.936,2.489
				c0.013,3.827,7.64,1.773,7.655,6.557c0.01,3.198-3.09,4.731-5.937,4.739c-1.326,0.004-2.912-0.32-4.047-0.945
				c0.257-0.719,0.546-1.436,0.673-2.185L222.698,64.215z"/>
		</g>
		<g>
			<path fill="#004785" d="M94.193,65.967c1.973,0.055,3.913-0.07,5.854-0.135c1.035-0.033,2.038-0.154,3.072-0.277
				c-0.031,0.329-0.095,0.598-0.094,0.896c0,0.3,0.066,0.598,0.1,0.897l-11.774,0.032l-0.065-20.359
				c0.453,0.028,0.938,0.087,1.423,0.086c0.453-0.002,0.906-0.063,1.423-0.094L94.193,65.967z"/>
			<path fill="#004785" d="M117.182,52.931c4.432-0.013,7.513,2.819,7.527,7.274c0.012,3.797-2.726,7.422-8.063,7.436
				c-4.367,0.012-7.935-2.938-7.658-7.482C108.975,55.853,112.523,52.943,117.182,52.931z M111.836,60.598
				c0.01,2.961,1.378,6.125,5.065,6.115c3.785-0.01,4.967-4.318,4.959-6.65c-0.008-2.69-1.119-6.215-4.709-6.205
				C113.044,53.868,111.826,57.43,111.836,60.598z"/>
			<path fill="#004785" d="M144.064,54.084l-3.559-0.26c1.329,0.953,2.239,2.266,2.244,3.939c0.011,3.26-3.122,4.642-6.874,4.653
				c-0.389,0.001-2.33-0.293-2.325,1.44c0.005,1.256,1.17,1.433,3.11,1.428l2.07-0.006c3.817-0.01,5.6,1.42,5.608,3.961
				c0.011,3.498-3.248,5.898-8.197,5.912c-2.652,0.007-5.858-1.24-5.868-4.379c-0.007-2.152,1.348-3.293,3.352-3.627v-0.239
				c-0.939-0.147-1.976-0.593-1.982-2.416c-0.004-1.435,0.964-2.065,2.224-2.577c-1.943-0.832-3.144-2.055-3.151-4.267
				c-0.009-2.9,1.796-4.907,6.52-4.771l4.496,0.137c0.776,0.088,1.553,0.056,2.329-0.066L144.064,54.084z M132.247,70.648
				c0.008,2.422,1.984,3.611,4.669,3.604c2.329-0.007,5.107-1.03,5.099-3.841c-0.01-3.109-2.34-3.313-4.766-3.305
				C133.885,67.086,132.239,68.227,132.247,70.648z M136.714,61.667c2.361-0.007,3.585-1.894,3.578-3.926
				c-0.008-2.302-0.919-4.063-3.474-4.057c-2.329,0.007-3.65,1.654-3.643,3.927C133.085,59.734,134.352,61.674,136.714,61.667z"/>
			<path fill="#004785" d="M152.945,49.426c-0.906,0.002-1.652-0.684-1.655-1.52c-0.002-0.837,0.739-1.526,1.645-1.528
				c0.873-0.003,1.651,0.683,1.654,1.52C154.593,48.734,153.818,49.424,152.945,49.426z M154.296,67.3
				c-0.485-0.028-0.873-0.087-1.294-0.086c-0.453,0.001-0.873,0.061-1.294,0.093l-0.045-14.29c0.42,0.028,0.841,0.087,1.294,0.087
				c0.42-0.002,0.809-0.063,1.293-0.094L154.296,67.3z"/>
			<path fill="#004785" d="M163.02,64.377c0.779,1.164,2.206,2.206,3.727,2.201c1.585-0.004,3.166-1.145,3.161-2.729
				c-0.013-4.036-7.638-1.385-7.655-6.616c-0.009-2.87,2.348-4.431,5.259-4.438c1.682-0.005,3.074,0.439,3.657,0.768
				c-0.321,0.687-0.577,1.406-0.77,2.124l-0.291,0.001c-0.424-0.985-1.559-1.969-2.756-1.966c-1.617,0.005-2.94,0.875-2.935,2.489
				c0.013,3.826,7.64,1.773,7.655,6.557c0.01,3.199-3.091,4.732-5.937,4.74c-1.326,0.003-2.912-0.322-4.047-0.946
				c0.257-0.718,0.546-1.437,0.673-2.185H163.02z"/>
			<path fill="#004785" d="M181.408,49.05l0.013,3.887l3.429-0.009c-0.096,0.418-0.095,0.837,0.003,1.135l-3.429,0.01l0.024,7.504
				c0.006,1.824-0.275,4.844,2.409,4.837c0.485-0.001,0.97-0.122,1.455-0.214l0.002,0.718c-0.872,0.302-1.777,0.543-2.715,0.546
				c-2.459,0.006-3.885-1.036-3.735-4.684l-0.027-8.699l-2.006,0.005c0.096-0.39,0.095-0.747-0.004-1.136l2.006-0.006l-0.01-2.959
				L181.408,49.05z"/>
			<path fill="#004785" d="M193.216,49.316c-0.906,0.003-1.652-0.683-1.655-1.52c-0.002-0.838,0.739-1.527,1.646-1.529
				c0.873-0.002,1.651,0.684,1.654,1.521C194.863,48.625,194.089,49.315,193.216,49.316z M194.566,67.191
				c-0.485-0.029-0.874-0.088-1.294-0.086c-0.453,0.001-0.873,0.061-1.294,0.093l-0.046-14.29c0.421,0.029,0.842,0.088,1.295,0.086
				c0.42-0.001,0.808-0.063,1.293-0.094L194.566,67.191z"/>
			<path fill="#004785" d="M215.038,55.865h-0.259c-0.261-0.328-0.521-0.715-0.877-0.983c-0.746-0.775-2.106-1.19-3.206-1.188
				c-3.752,0.011-5.554,3.005-5.544,6.144c0.013,3.826,2.382,6.541,5.908,6.531c1.876-0.005,3.103-0.815,4.457-1.955l0.194,0.09
				l-0.157,1.375c-1.452,0.99-3.165,1.504-4.944,1.508c-5.401,0.016-8.29-3.206-8.304-7.392c-0.015-4.634,3.534-7.304,8.354-7.317
				c1.844-0.005,3.526,0.32,5.114,1.213L215.038,55.865z"/>
			<path fill="#004785" d="M222.698,64.215c0.78,1.164,2.206,2.207,3.727,2.203c1.585-0.005,3.166-1.145,3.161-2.729
				c-0.013-4.036-7.638-1.384-7.654-6.616c-0.01-2.87,2.347-4.432,5.258-4.44c1.682-0.004,3.074,0.441,3.657,0.768
				c-0.321,0.689-0.577,1.407-0.77,2.125l-0.291,0.001c-0.424-0.985-1.559-1.969-2.756-1.966c-1.617,0.004-2.941,0.875-2.936,2.489
				c0.013,3.827,7.64,1.773,7.655,6.557c0.01,3.198-3.09,4.731-5.937,4.739c-1.326,0.004-2.912-0.32-4.047-0.945
				c0.257-0.719,0.546-1.436,0.673-2.185L222.698,64.215z"/>
		</g>
	</g>
</g>
</svg>
